<svg width="125" height="125" viewBox="0 0 125 125" fill="none" xmlns="http://www.w3.org/2000/svg">
<path d="M34.4855 83.3821H90.5195L96.9817 125L62.5012 110.595L28.0208 125L34.4855 83.3821Z" fill="#0E6788"/>
<path d="M125 46.4216C125 47.8849 119.005 49.1224 118.816 50.5458C118.627 51.9978 124.187 54.0665 123.812 55.4786C123.434 56.9077 117.229 57.2475 116.665 58.6273C116.095 60.0203 121.001 62.8616 120.257 64.1939C119.509 65.5377 113.33 64.9626 112.418 66.2361C111.496 67.5172 115.553 71.0151 114.475 72.2146C113.386 73.4217 107.479 71.9679 106.245 73.0838C105.008 74.2036 108.072 78.2235 106.694 79.2464C105.317 80.2713 99.9075 77.9957 98.3999 78.9105C96.8923 79.8291 98.8496 84.2152 97.2322 85.0238C95.6147 85.8266 90.8977 82.8089 89.178 83.4978C87.466 84.1754 88.2351 88.7608 86.4286 89.3169C84.6374 89.8711 80.8147 86.229 78.9366 86.6503C77.0789 87.0697 76.6216 91.6779 74.6949 91.9607C72.7989 92.2378 70.0111 88.1079 68.0538 88.2484C66.1297 88.3888 64.4739 92.8414 62.5013 92.8414C60.5312 92.8414 58.8703 88.3888 56.9487 88.2484C54.994 88.1079 52.2062 92.2397 50.3077 91.9607C48.381 91.676 47.9211 87.0678 46.0659 86.6503C44.193 86.229 40.3678 89.8711 38.574 89.3169C36.7649 88.7608 37.534 84.1754 35.822 83.4978C34.0972 82.8089 29.3853 85.8266 27.7704 85.0238C26.1478 84.2152 28.1051 79.8272 26.6001 78.9105C25.0951 77.9957 19.683 80.2713 18.3032 79.2464C16.9234 78.2235 19.9897 74.2036 18.7529 73.0819C17.5162 71.9641 11.611 73.4198 10.5251 72.2146C9.44674 71.0132 13.507 67.5096 12.582 66.2361C11.6647 64.9626 5.49122 65.5358 4.74253 64.1939C3.99896 62.8616 8.90247 60.0222 8.33521 58.6273C7.77305 57.2513 1.56892 56.9077 1.18818 55.4786C0.812563 54.0665 6.37022 51.9978 6.18369 50.5458C5.9946 49.1186 0 47.8849 0 46.4216C0 44.9583 5.9946 43.7209 6.18369 42.2974C6.37278 40.8455 0.815118 38.7729 1.18818 37.3647C1.56892 35.9336 7.77561 35.5939 8.33521 34.216C8.90502 32.8229 3.99896 29.9817 4.74253 28.6494C5.49122 27.3056 11.6647 27.8788 12.5846 26.6072C13.507 25.3261 9.44674 21.8263 10.5276 20.6268C11.6136 19.4235 17.5188 20.8773 18.7529 19.7594C19.9922 18.6453 16.9259 14.6179 18.3058 13.5949C19.6856 12.57 25.0951 14.8476 26.6026 13.929C28.1077 13.0123 26.1504 8.62422 27.7704 7.8176C29.3879 7.01477 34.1023 10.0325 35.822 9.34544C37.534 8.66598 36.7649 4.07866 38.574 3.52067C40.3652 2.97027 44.1904 6.61431 46.0685 6.19107C47.9185 5.77163 48.381 1.16344 50.3077 0.882541C52.2062 0.605442 54.994 4.73156 56.9487 4.59301C58.8703 4.45256 60.5312 0 62.5013 0C64.4714 0 66.1348 4.45256 68.0538 4.59301C70.0111 4.73345 72.7964 0.605441 74.6949 0.884438C76.6267 1.16723 77.0815 5.77542 78.9366 6.18727C80.807 6.61431 84.6348 2.97027 86.4337 3.52257C88.2351 4.07867 87.466 8.66598 89.178 9.34544C90.9054 10.0344 95.6172 7.01667 97.2322 7.8195C98.8547 8.62612 96.8923 13.0123 98.3999 13.929C99.9024 14.8457 105.322 12.57 106.694 13.5968C108.072 14.6217 105.008 18.6396 106.245 19.7594C107.481 20.8773 113.386 19.4235 114.475 20.6268C115.553 21.8282 111.496 25.3299 112.418 26.6072C113.33 27.8788 119.509 27.3075 120.257 28.6494C121.001 29.9817 116.095 32.821 116.665 34.216C117.229 35.5901 123.431 35.9336 123.812 37.3647C124.185 38.7729 118.627 40.8455 118.816 42.2974C119.005 43.7247 125 44.9583 125 46.4216Z" fill="#FEA501"/>
<path d="M62.9685 29.2983H56.0412L53.9817 38.5755H47.959L50.0185 29.2983H43.0938L41.0343 38.5755H34.1326L33.067 43.7587H39.8844L38.4407 50.2516H31.5262L30.4607 55.4367H37.2934L35.492 63.5428H42.4167L44.2156 55.4367H50.2383L48.4394 63.5428H55.3641L57.163 55.4367H64.3969L65.465 50.2516H58.3154L59.7566 43.7587H67.0058L68.0739 38.5755H60.9064L62.9685 29.2983ZM51.3907 50.2516H45.4063L46.8092 43.7587H52.7961L51.3907 50.2516ZM80.8578 29.3249C80.1985 30.4542 79.11 31.4145 77.6049 32.206C76.1025 32.9974 74.5157 33.4662 72.8547 33.6105V37.2127H78.765V63.5428H85.7127V29.3249H80.8578Z" fill="#3A809A"/>
</svg>
