<svg width="125" height="126" viewBox="0 0 125 126" fill="none" xmlns="http://www.w3.org/2000/svg">
<path d="M122.978 110.91L94.117 82.0494C100.153 73.5712 103.714 63.2122 103.714 52.0143C103.714 23.3742 80.4973 0.156494 51.8558 0.156494C23.2144 0.156494 0 23.3742 0 52.0143C0 80.6545 23.2168 103.872 51.8558 103.872C63.0533 103.872 73.4143 100.311 81.8922 94.2747L110.751 123.135C113.449 125.83 117.829 125.83 120.53 123.135L122.978 120.684C125.674 117.988 125.674 113.605 122.978 110.91Z" fill="#FEA501"/>
<path d="M52.4355 14.5579C73.4404 14.5579 90.4662 31.5843 90.4662 52.5876C90.4662 73.5933 73.4404 90.6197 52.4355 90.6197C31.433 90.6197 14.4072 73.5933 14.4072 52.5876C14.4048 31.5843 31.4306 14.5579 52.4355 14.5579Z" fill="#0E6788"/>
</svg>
