<svg width="125" height="125" viewBox="0 0 125 125" fill="none" xmlns="http://www.w3.org/2000/svg">
<path d="M125 71.4683V53.5317L108.025 49.6699C107.005 46.0421 105.576 42.5914 103.769 39.3725L113.036 24.6463L100.352 11.9627L85.6288 21.2293C82.4122 19.4185 78.9595 17.9914 75.3318 16.9712L71.4701 0H53.5341L49.6724 16.9712C46.0469 17.9936 42.5962 19.4185 39.3733 21.2293L24.6476 11.9627L11.9644 24.6463L21.2328 39.3725C19.4242 42.5914 17.9951 46.0421 16.9727 49.6699L0 53.5317V71.4683L16.9727 75.328C17.993 78.9558 19.4221 82.4065 21.2328 85.6254L11.9644 100.354L24.6476 113.037L39.3733 103.771C42.592 105.579 46.0426 107.006 49.6724 108.029L53.5341 125H71.4701L75.3318 108.029C78.9573 107.009 82.408 105.581 85.6288 103.771L100.352 113.037L113.036 100.354L103.769 85.6254C105.578 82.4086 107.003 78.9558 108.025 75.328L125 71.4683Z" fill="#0E6788"/>
<path d="M62.5032 31.2402C79.7647 31.2402 93.7611 45.235 93.7611 62.5013C93.7611 79.7676 79.7647 93.7624 62.5032 93.7624C45.2375 93.7624 31.2432 79.7676 31.2432 62.5013C31.2432 45.235 45.2375 31.2402 62.5032 31.2402Z" fill="#FEA501"/>
</svg>
