<svg width="125" height="125" viewBox="0 0 125 125" fill="none" xmlns="http://www.w3.org/2000/svg">
<path d="M8.33293 76.7034L47.3633 115.863L1.21729 124.437L8.33293 76.7034Z" fill="#FFCD72"/>
<path d="M70.4176 14.8845L83.9125 28.4022L21.8208 90.4327L8.33057 77.0616L70.4176 14.8845Z" fill="#0E6788"/>
<path d="M94.1851 38.4084L109.446 53.6911L47.3608 115.864L31.947 100.574L94.1851 38.4084Z" fill="#0E6788"/>
<path d="M83.1018 27.458L98.3622 42.743L36.2821 104.913L21.0217 89.6258L83.1018 27.458Z" fill="#FEA501"/>
<path d="M20.0599 120.87L0 125L4.12582 104.913L20.0599 120.87Z" fill="#0E6788"/>
<path d="M97.3563 3.35732L121.644 27.6835C126.119 32.1623 126.119 39.4246 121.644 43.9033L81.155 3.35732C85.634 -1.11911 92.882 -1.11911 97.3563 3.35732Z" fill="#D3A5A5"/>
<path d="M82.3747 1.80374L122.864 42.3521C123.612 43.0985 123.612 44.3124 122.864 45.0565L113.005 54.9303C112.261 55.679 111.051 55.679 110.303 54.9303L69.8114 14.3819C69.0703 13.6378 69.0703 12.4239 69.8114 11.6821L79.673 1.80374C80.4233 1.05728 81.6313 1.05728 82.3747 1.80374Z" fill="#FFCD72"/>
</svg>
