<svg width="80" height="80" viewBox="0 0 80 80" fill="none" xmlns="http://www.w3.org/2000/svg">
<path d="M11.7598 71.3217L5.47607 0.839844H74.5261L68.2361 71.3111L39.9592 79.1505L11.7598 71.3217Z" fill="#1572B6"/>
<path d="M40 73.1578L62.8494 66.8228L68.225 6.60156H40V73.1578Z" fill="#33A9DC"/>
<path d="M40 32.1349H51.4388L52.2288 23.283H40V14.6387H61.6763L61.4688 16.958L59.3437 40.7793H40V32.1349Z" fill="white"/>
<path d="M40.0531 54.5899L40.0149 54.6012L30.3881 52.0018L29.7724 45.1074H21.0962L22.3068 58.6805L40.0137 63.5949L40.0531 63.5837V54.5899Z" fill="#EBEBEB"/>
<path d="M50.7045 40.4199L49.6632 51.9962L40.022 54.5987V63.5924L57.7432 58.6812L57.8732 57.2206L59.377 40.4199H50.7045Z" fill="white"/>
<path d="M40.0302 14.6387V23.283H19.1502L18.9771 21.3405L18.5833 16.958L18.3765 14.6387H40.0302ZM40.0008 32.1362V40.7805H30.4952L30.3221 38.838L29.9277 34.4555L29.7215 32.1362H40.0008Z" fill="#EBEBEB"/>
</svg>
