<svg width="80" height="80" viewBox="0 0 80 80" fill="none" xmlns="http://www.w3.org/2000/svg">
<g clip-path="url(#clip0)">
<path d="M5.08034 18.7885C-2.00248 29.3553 -1.12074 43.1047 4.2898 54.3335C4.41824 54.6028 4.5531 54.8675 4.68603 55.1322L4.93906 55.6381L5.09704 55.9295L5.37897 56.4534C5.54722 56.7607 5.71933 57.0667 5.89529 57.3727L6.19006 57.8767C6.38529 58.204 6.58502 58.5273 6.78924 58.85L7.04483 59.2593C7.32676 59.6959 7.61511 60.1319 7.91309 60.5599L7.93813 60.5932L8.08455 60.7986C8.34208 61.1672 8.6073 61.5312 8.87574 61.8912L9.17372 62.2845C9.41326 62.5972 9.65666 62.9078 9.90455 63.2171L10.1839 63.5638C10.5166 63.9704 10.8563 64.3751 11.2024 64.7717L11.2236 64.7937L11.2628 64.8391C11.6012 65.2224 11.9474 65.597 12.298 65.9717L12.63 66.319C12.9017 66.603 13.1778 66.8823 13.4566 67.1603L13.795 67.4936C14.1675 67.8582 14.5438 68.2156 14.9278 68.5649L14.9458 68.5796L15.143 68.7542C15.4814 69.0582 15.8256 69.3602 16.1724 69.6562L16.5988 70.0088C16.882 70.2448 17.1685 70.4768 17.4568 70.7048L17.9153 71.0668C18.2339 71.3101 18.5543 71.5494 18.878 71.7834L19.2286 72.0414L19.325 72.1127C19.6319 72.332 19.946 72.5434 20.26 72.7547L20.6646 73.0347C21.1462 73.3507 21.6343 73.6633 22.1282 73.9653L22.5328 74.202C22.8956 74.4193 23.261 74.6326 23.6309 74.8413C23.8313 74.9533 24.0368 75.0592 24.2384 75.1666C24.4998 75.3086 24.7593 75.4526 25.0251 75.5906L25.2069 75.6819L25.5286 75.8432C25.9403 76.0472 26.3551 76.2479 26.7745 76.4412L27.0378 76.5639C27.5182 76.7818 28.0024 76.9912 28.4911 77.1912L28.8449 77.3358C29.2971 77.5165 29.7556 77.6951 30.216 77.8631L30.3881 77.9251C30.8936 78.1084 31.4035 78.2784 31.9172 78.4444L32.2865 78.5591C32.8092 78.7224 33.3262 78.9177 33.865 79.0211C68.1193 85.5054 78.0695 57.6534 78.0695 57.6534C69.7126 68.9549 54.8791 71.9361 40.8245 68.6169C40.2921 68.4922 39.7758 68.3196 39.2563 68.1602L38.8652 68.0369C38.3578 67.8756 37.855 67.7056 37.3547 67.5269L37.1473 67.4489C36.699 67.2856 36.2566 67.1129 35.8154 66.9363L35.4416 66.7836C34.9587 66.5856 34.4783 66.379 34.0037 66.163L33.7167 66.031C33.3089 65.839 32.9056 65.6457 32.5036 65.445L32.1529 65.2704C31.8376 65.111 31.5255 64.9417 31.2147 64.7751C31.0066 64.6611 30.7947 64.5537 30.5885 64.4351C30.2083 64.2237 29.8359 64.0044 29.464 63.7804L29.0845 63.5604C28.5906 63.2591 28.1032 62.9465 27.6203 62.6292L27.2253 62.3558C26.8753 62.1218 26.5266 61.8832 26.183 61.6365L25.8478 61.3919C25.5164 61.1485 25.1883 60.9026 24.8627 60.6526L24.4266 60.3099C24.128 60.0733 23.8313 59.8346 23.5378 59.5886L23.1416 59.2586C22.7678 58.9393 22.3992 58.6193 22.0344 58.29L21.913 58.184C21.5187 57.8247 21.1321 57.4561 20.7494 57.0861L20.4212 56.7588C20.138 56.4788 19.8593 56.1968 19.5851 55.9075L19.2575 55.5681C18.9088 55.1975 18.5665 54.8222 18.2313 54.4415L18.1806 54.3855C17.8261 53.9829 17.4793 53.5716 17.1396 53.1562L16.8673 52.8203C16.6142 52.5036 16.3631 52.183 16.1178 51.859L15.8436 51.5043C15.5488 51.107 15.2605 50.7117 14.9786 50.3084C7.17584 39.2595 4.372 24.0216 10.6084 11.5075L5.08034 18.7885ZM27.0673 9.88488C21.9445 17.5365 22.2232 27.7801 26.219 35.8724C26.8888 37.229 27.6421 38.5456 28.4847 39.7982C29.2521 40.9401 30.103 42.2987 31.1215 43.216C31.4908 43.638 31.8768 44.05 32.2711 44.4546L32.5742 44.7646C32.9569 45.1499 33.3455 45.5286 33.7481 45.8966L33.7957 45.9392L33.8072 45.9512C34.2523 46.3566 34.7114 46.7452 35.1783 47.1292L35.4898 47.3812C35.9579 47.7538 36.4351 48.1191 36.9238 48.4685L36.9656 48.5011C37.1813 48.6558 37.401 48.7998 37.62 48.9491L37.9301 49.1618C38.2795 49.3944 38.6333 49.6211 38.993 49.8384L39.1439 49.9291C39.4541 50.1144 39.7681 50.297 40.0834 50.4744L40.418 50.655C40.6357 50.773 40.8534 50.8937 41.075 51.0083L41.1745 51.055C41.626 51.2857 42.0813 51.5083 42.5463 51.7183L42.8494 51.8476C43.2212 52.0116 43.5969 52.1716 43.9732 52.321L44.4549 52.5043C44.7972 52.6363 45.1408 52.7563 45.4869 52.8769L45.9538 53.0323C46.4464 53.1909 46.9331 53.3916 47.4463 53.4802C73.894 58.0287 80 36.8903 80 36.8903C74.4963 45.1186 63.8371 49.0451 52.4631 45.9799C51.9577 45.8419 51.46 45.6926 50.9649 45.5306L50.5147 45.3793C50.1628 45.2613 49.8134 45.1359 49.4673 45.0046L48.9946 44.822C48.6144 44.67 48.2394 44.514 47.8669 44.35L47.5631 44.2167C47.0963 44.006 46.6364 43.7833 46.1837 43.5507C45.9506 43.4327 45.7213 43.308 45.4914 43.1854L45.092 42.972C44.7978 42.8067 44.505 42.6347 44.2166 42.4587L44.0073 42.3354C43.6489 42.1187 43.2964 41.8948 42.947 41.6634L42.6272 41.4421C42.3966 41.2875 42.1667 41.1295 41.9407 40.9708C41.4533 40.6215 40.9787 40.2562 40.5111 39.8855L40.1894 39.6222C35.2111 35.5424 31.2641 29.9653 29.3882 23.6423C27.4218 17.0852 27.8457 9.72422 31.2525 3.74983L27.0673 9.88488ZM45.5595 3.23319C42.5398 7.84631 42.2432 13.5754 44.3386 18.6698C46.5485 24.0782 51.076 28.32 56.3606 30.3326C56.5783 30.4159 56.7967 30.4906 57.017 30.5686L57.3066 30.6639C57.6181 30.7653 57.927 30.8833 58.2487 30.9466C72.8523 33.8758 76.8134 23.1676 77.8672 21.591C74.3981 26.7768 68.5669 28.0214 61.4122 26.2188C60.847 26.0768 60.226 25.8648 59.6814 25.6642C58.9827 25.4055 58.2943 25.1109 57.6258 24.7782C56.3555 24.1442 55.1443 23.3756 54.0217 22.4956C47.6196 17.4525 43.6425 7.83364 47.82 0" fill="#0868AC"/>
</g>
<defs>
<clipPath id="clip0">
<rect width="80" height="80" fill="white"/>
</clipPath>
</defs>
</svg>
