<svg width="80" height="80" viewBox="0 0 80 80" fill="none" xmlns="http://www.w3.org/2000/svg">
<path d="M73.6724 61.9148C69.3079 61.7935 65.9749 62.2077 63.1252 63.4322C62.3157 63.7803 61.0234 63.79 60.8912 64.8239C61.3363 65.299 61.4056 66.0094 61.7592 66.5941C62.4397 67.7154 63.5882 69.2205 64.6133 70.0088C65.7339 70.8708 66.8881 71.7919 68.0888 72.538C70.2243 73.8649 72.6084 74.6232 74.6644 75.9527C75.8765 76.737 77.0804 77.7242 78.2626 78.6083C78.8477 79.0459 79.2401 79.7258 80 80V79.8743C79.6006 79.3557 79.4976 78.644 79.1313 78.1027L77.5179 76.4583C75.9408 74.3244 73.9382 72.4498 71.8097 70.8935C70.1123 69.6516 66.3139 67.9741 65.606 65.9614L65.482 65.835C66.6852 65.6963 68.0939 65.253 69.2048 64.949C71.0707 64.4395 72.7382 64.5711 74.6644 64.0642L77.2699 63.3051V62.7995C76.2963 61.7812 75.6018 60.433 74.5404 59.5113C71.7614 57.1 68.7292 54.6906 65.6067 52.6812C63.8744 51.5677 61.7344 50.8436 59.8985 49.8992C59.281 49.5809 58.196 49.4157 57.7884 48.8867C56.8237 47.6344 56.299 46.0463 55.5556 44.5873C53.9982 41.5297 52.4687 38.1909 51.0887 34.9739C50.1475 32.7804 49.5326 30.6181 48.3586 28.6501C42.7242 19.2079 36.6598 13.5096 27.265 7.90796C25.2656 6.71658 22.8585 6.24664 20.3148 5.63086C18.9507 5.54724 17.5853 5.46233 16.2206 5.37741C15.3868 5.0235 14.5207 3.98445 13.7391 3.48015C10.6268 1.47594 2.64316 -2.88316 0.338503 2.84816C-1.11717 6.46573 2.51407 9.99449 3.81203 11.8282C4.72397 13.1129 5.89093 14.5552 6.54213 16.0013C6.97076 16.9522 7.04453 17.9057 7.41147 18.911C8.3126 21.3884 9.09799 24.0836 10.2649 26.3724C10.8545 27.5314 11.5044 28.7513 12.2504 29.7871C12.707 30.4229 13.4911 30.703 13.6145 31.6843C12.8488 32.7772 12.8049 34.4742 12.3744 35.8587C10.4347 42.0911 11.1667 49.8383 13.9878 54.4508C14.8526 55.8678 16.8921 58.9046 19.6954 57.7391C22.1476 56.7214 21.6 53.566 22.3015 50.7827C22.4598 50.152 22.3625 49.6879 22.6735 49.2653V49.3917L24.9076 53.9446C26.561 56.6586 29.494 59.4944 31.9805 61.4079C33.2696 62.4003 34.2845 64.1154 35.9514 64.6962V64.5691H35.8273C35.5043 64.0564 34.9987 63.8438 34.5866 63.4315C33.6155 62.4612 32.5357 61.2549 31.7331 60.1432C29.4717 57.0144 27.4736 53.59 25.6529 50.0256C24.7829 48.3228 24.0268 46.4456 23.2942 44.713C23.0118 44.0454 23.0156 43.0348 22.4267 42.6894C21.6235 43.9585 20.4413 44.9853 19.8206 46.4839C18.8279 48.8796 18.7001 51.8017 18.3319 54.8313C18.1144 54.9104 18.2111 54.8559 18.0832 54.9571C16.3547 54.5325 15.7481 52.7195 15.1051 51.1632C13.4809 47.2287 13.1788 40.8945 14.6084 36.3656C14.9786 35.193 16.6498 31.5035 15.9732 30.4204C15.6501 29.3405 14.5843 28.7156 13.9884 27.8905C13.2501 26.8702 12.5136 25.5271 12.0017 24.3487C10.6726 21.2821 10.0519 17.8383 8.6522 14.7373C7.98255 13.2549 6.8512 11.7543 5.92209 10.4372C4.89377 8.97683 3.74144 7.90148 2.94397 6.13645C2.66033 5.509 2.27559 4.5043 2.69531 3.85934C2.82886 3.42441 3.01837 3.24291 3.44 3.10096C4.15989 2.53509 6.16438 3.28893 6.91353 3.6059C8.90339 4.44855 10.5645 5.25102 12.2504 6.38924C13.0587 6.93632 13.8777 7.99352 14.8558 8.2865H15.9725C17.7195 8.69551 19.6763 8.4129 21.3088 8.91849C24.1934 9.8117 26.7785 11.2021 29.1258 12.713C36.2776 17.3165 42.1257 23.8684 46.1258 31.685C46.7694 32.9438 47.0479 34.1442 47.6146 35.4795C48.758 38.1714 50.1984 40.9412 51.3361 43.5741C52.4719 46.2006 53.5784 48.8511 55.1836 51.0368C56.0275 52.1854 59.286 52.8018 60.7678 53.4403C61.8056 53.8869 63.5068 54.3536 64.4906 54.9571C66.3685 56.1121 68.1886 57.487 69.9508 58.7522C70.8303 59.3842 73.5375 60.772 73.6724 61.9148ZM18.206 13.7274C17.2959 13.7099 16.6524 13.8286 15.9719 13.9796V14.106H16.0959C16.5303 15.0147 17.2966 15.6007 17.8327 16.3831C18.246 17.2692 18.66 18.1539 19.074 19.0387L19.1974 18.9136C19.9663 18.3607 20.3179 17.4785 20.3135 16.1303C20.0057 15.8004 19.9605 15.3868 19.6935 14.9927C19.3399 14.467 18.6537 14.1682 18.206 13.7274Z" fill="#00618A"/>
</svg>
