<svg width="80" height="80" viewBox="0 0 80 80" fill="none" xmlns="http://www.w3.org/2000/svg">
<path d="M76.8381 17.7262L43.8684 0.785981C41.7892 -0.261994 39.0819 -0.261994 36.9862 0.785981L3.6643 17.7262C1.5185 18.8185 0 20.8715 0 23.0673V56.9029C0 59.0987 1.55813 61.1523 3.70393 62.2506L12.5077 66.6754C16.7155 68.5093 18.2026 68.5093 20.1174 68.5093C26.3477 68.5093 29.9065 65.1755 29.9065 59.3607V25.9565C29.9065 25.4848 29.6292 24.7829 29.1058 24.7829H24.9017C24.3693 24.7829 23.1776 25.4848 23.1776 25.9559V59.3601C23.1776 61.9377 20.5428 64.5027 15.6187 62.324L6.52187 57.6842C6.20486 57.5321 5.98131 57.2257 5.98131 56.9029V23.0673C5.98131 22.7485 6.39626 22.4282 6.71551 22.2648L39.9297 5.35367C40.24 5.19819 40.6961 5.19819 41.0056 5.35367L73.8146 22.2609C74.1286 22.4282 74.0179 22.7385 74.0179 23.0673V56.9029C74.0179 57.2257 74.1548 57.54 73.8445 57.6955L40.883 74.6166C40.6004 74.7667 40.2497 74.7667 39.9402 74.6166L31.4864 70.1514C31.2314 70.0204 30.9286 69.9735 30.6841 70.0945C28.332 71.2742 27.8983 71.431 25.692 72.1078C25.1492 72.2752 24.3484 72.5656 25.9985 73.384L37.0624 79.1756C38.1219 79.7182 39.3256 80 40.5368 80C41.7645 80 42.9667 79.7182 44.0262 79.1756L76.8374 62.2506C78.9832 61.1444 80 59.0987 80 56.9029V23.0673C80 20.8715 78.9832 18.8238 76.8381 17.7262ZM50.7738 51.5413C42.0067 51.5413 40.0755 49.401 39.4318 45.5432C39.357 45.1277 38.9585 44.6309 38.4807 44.6309H34.1959C33.6658 44.6309 33.2396 45.1998 33.2396 45.6669C33.2396 50.6064 36.2744 56.5913 50.7746 56.5913C61.271 56.5913 67.289 52.9822 67.289 46.5952C67.289 40.2623 62.4538 38.6004 52.2744 37.4082C41.985 36.2047 40.9398 35.5967 40.9398 33.4637C40.9398 31.7052 41.825 29.3598 49.4437 29.3598C56.2512 29.3598 58.7604 30.6526 59.7929 34.7128C59.8811 35.0946 60.2751 35.3685 60.72 35.3685H65.0221C65.2867 35.3685 65.5394 35.2739 65.7249 35.1065C65.9043 34.9265 65.9993 34.7009 65.9753 34.4588C65.3092 27.467 60.0598 24.2086 49.443 24.2086C39.9993 24.2086 34.3656 27.7376 34.3656 33.6529C34.3656 40.0691 39.9708 41.8422 49.0363 42.6355C59.8811 43.5763 60.7245 44.9789 60.7245 46.8664C60.7245 50.1446 57.7503 51.5413 50.7738 51.5413Z" fill="#83CD29"/>
</svg>
