<svg width="80" height="80" viewBox="0 0 80 80" fill="none" xmlns="http://www.w3.org/2000/svg">
<g clip-path="url(#clip0)">
<path d="M39.9999 48.1574C44.023 48.1574 47.2843 44.5052 47.2843 40C47.2843 35.4947 44.023 31.8425 39.9999 31.8425C35.9769 31.8425 32.7156 35.4947 32.7156 40C32.7156 44.5052 35.9769 48.1574 39.9999 48.1574Z" fill="#61DAFB"/>
<path d="M67.6677 26.5474C66.262 25.975 64.7923 25.4025 63.2588 24.9016C63.6422 23.1843 63.9617 21.4669 64.2172 19.8211C65.5591 10.3757 64.0895 3.72093 60 1.1449C58.7859 0.357781 57.4441 0 55.9105 0C51.4377 0 45.7508 3.72093 40 9.94633C34.2492 3.72093 28.5623 0 24.0895 0C22.5559 0 21.2141 0.357781 20 1.1449C15.9105 3.79249 14.4409 10.4472 15.7827 19.8211C16.0383 21.4669 16.3578 23.1843 16.7412 24.9016C15.2077 25.4025 13.738 25.9034 12.3323 26.5474C4.34505 29.9821 0 34.7048 0 40C0 45.2952 4.40895 50.0179 12.3323 53.4526C13.738 54.0251 15.2077 54.5975 16.7412 55.0984C16.3578 56.8157 16.0383 58.5331 15.7827 60.1789C14.4409 69.6243 15.9105 76.2791 20 78.8551C21.2141 79.6422 22.5559 80 24.0895 80C28.6262 80 34.3131 76.2791 40 70.0537C45.7508 76.2791 51.4377 80 55.9105 80C57.4441 80 58.7859 79.6422 60 78.8551C64.0895 76.2075 65.5591 69.5528 64.2172 60.1789C63.9617 58.5331 63.6422 56.8157 63.2588 55.0984C64.7923 54.5975 66.262 54.0966 67.6677 53.4526C75.6549 50.0179 80 45.2952 80 40C80 34.7048 75.6549 29.9821 67.6677 26.5474ZM58.2109 4.72272C60.8307 6.44007 61.7252 11.7352 60.639 19.2487C60.4473 20.7513 60.1278 22.3256 59.7444 23.9714C56.4217 23.1127 52.9073 22.5403 49.2013 22.1825C47.0288 18.7478 44.7923 15.6708 42.5559 12.8801C47.2843 7.65653 52.0767 4.07871 55.9744 4.07871C56.8051 4.07871 57.5719 4.29338 58.2109 4.72272ZM51.0543 47.1556C49.9042 49.4454 48.5623 51.7352 47.1565 54.025C44.7923 54.2397 42.4281 54.3113 40 54.3113C37.508 54.3113 35.1438 54.2397 32.8434 54.025C31.4377 51.7352 30.1597 49.4454 29.0096 47.1556C27.7955 44.7943 26.6454 42.3614 25.623 40C26.6454 37.6386 27.7955 35.2057 29.0096 32.8444C30.1597 30.5546 31.5016 28.2648 32.9073 25.975C35.2716 25.7603 37.6358 25.6887 40.0639 25.6887C42.5559 25.6887 44.9201 25.7603 47.2204 25.975C48.6262 28.2648 49.9042 30.5546 51.0543 32.8444C52.2684 35.2057 53.4185 37.6386 54.4409 40C53.3546 42.3614 52.2684 44.7227 51.0543 47.1556ZM56.3578 44.7943C57.3163 47.2987 58.0831 49.7317 58.7859 52.1646C56.6134 52.737 54.3131 53.1664 51.885 53.5242C52.6518 52.1646 53.4824 50.7335 54.1853 49.2308C54.9521 47.7281 55.6549 46.2254 56.3578 44.7943ZM40 64.1861C38.4664 62.3256 36.9968 60.322 35.591 58.2469C37.0607 58.3184 38.5303 58.39 40 58.39C41.4696 58.39 42.9393 58.3184 44.4089 58.2469C43.0032 60.322 41.5335 62.3256 40 64.1861ZM28.115 53.4526C25.6869 53.0948 23.3866 52.6655 21.2141 52.093C21.9169 49.7317 22.6837 47.2272 23.6422 44.7227C24.345 46.1538 25.0479 47.6565 25.8147 49.0877C26.5815 50.6619 27.3482 52.0215 28.115 53.4526ZM23.6422 35.2057C22.6837 32.7013 21.9169 30.2683 21.2141 27.8354C23.3866 27.263 25.6869 26.8336 28.115 26.4759C27.3482 27.8354 26.5176 29.2665 25.8147 30.7692C25.0479 32.2719 24.345 33.7746 23.6422 35.2057ZM40 15.814C41.5335 17.6744 43.0032 19.678 44.4089 21.7531C42.9393 21.6816 41.4696 21.61 40 21.61C38.5303 21.61 37.0607 21.6816 35.591 21.7531C36.9968 19.678 38.4664 17.6744 40 15.814ZM54.1853 30.8408L51.885 26.5474C54.3131 26.9052 56.6134 27.3345 58.7859 27.907C58.0831 30.2683 57.3163 32.7728 56.3578 35.2773C55.6549 33.7746 54.9521 32.2719 54.1853 30.8408ZM19.361 19.2487C18.2748 11.7352 19.1693 6.44007 21.7891 4.72272C22.4281 4.29338 23.1949 4.07871 24.0256 4.07871C27.8594 4.07871 32.6518 7.58497 37.4441 12.8801C35.2077 15.5993 32.9712 18.7478 30.7987 22.1825C27.0926 22.5403 23.5783 23.1843 20.2556 23.9714C19.8722 22.3256 19.6166 20.7513 19.361 19.2487ZM3.57827 40C3.57827 36.6369 7.22045 33.059 13.6102 30.4114C14.8882 29.839 16.2939 29.3381 17.6997 28.9088C18.722 32.4866 20 36.2791 21.5335 40.0716C20 43.864 18.6581 47.585 17.6997 51.1628C8.88179 48.3005 3.57827 44.0072 3.57827 40ZM21.7891 75.2773C19.1693 73.5599 18.2748 68.2648 19.361 60.7513C19.5527 59.2487 19.8722 57.6744 20.2556 56.0286C23.5783 56.8873 27.0926 57.4598 30.7987 57.8175C32.9712 61.2522 35.2077 64.3292 37.4441 67.1199C32.7157 72.3435 27.9233 75.9213 24.0256 75.9213C23.1949 75.9213 22.4281 75.7066 21.7891 75.2773ZM60.639 60.7513C61.7252 68.2648 60.8307 73.5599 58.2109 75.2773C57.5719 75.7066 56.8051 75.9213 55.9744 75.9213C52.1406 75.9213 47.3482 72.415 42.5559 67.1199C44.7923 64.4007 47.0288 61.2522 49.2013 57.8175C52.9073 57.4598 56.4217 56.8157 59.7444 56.0286C60.1278 57.6744 60.3834 59.2487 60.639 60.7513ZM66.3898 49.5886C65.1118 50.161 63.7061 50.6619 62.3003 51.0912C61.278 47.5134 60 43.7209 58.4664 39.9284C60 36.136 61.3419 32.415 62.3003 28.8372C71.1182 31.6995 76.4217 35.9928 76.4217 40C76.4217 43.3632 72.7157 46.941 66.3898 49.5886Z" fill="#61DAFB"/>
</g>
<defs>
<clipPath id="clip0">
<rect width="80" height="80" fill="white"/>
</clipPath>
</defs>
</svg>
