<svg width="80" height="80" viewBox="0 0 80 80" fill="none" xmlns="http://www.w3.org/2000/svg">
<path fill-rule="evenodd" clip-rule="evenodd" d="M27.0357 75.7706C27.0851 76.4068 27.0538 77.065 27.2226 77.6687C27.2944 77.9237 27.7851 78.0618 28.0857 78.2531L28.4763 78.5037C28.3294 78.5893 28.1832 78.7468 28.0344 78.7487C26.8682 78.7693 25.7019 78.7687 24.5357 78.75C24.3807 78.7475 24.2288 78.6018 24.0763 78.5225C24.2001 78.4331 24.3188 78.2781 24.4494 78.2675C25.2313 78.2018 25.4694 77.7268 25.4657 77.0243C25.4588 75.7331 25.4619 74.4406 25.4676 73.1481C25.4707 72.4281 25.2663 71.9025 24.4182 71.87C24.3007 71.865 24.1894 71.685 24.0757 71.5868C24.1894 71.5175 24.3044 71.3862 24.4169 71.3881C25.9107 71.4062 27.4107 71.3731 28.8963 71.4987C30.0669 71.5981 30.8382 72.4081 30.9176 73.3418C31.0038 74.3662 30.4782 75.0693 29.2894 75.5206L28.8338 75.6906C29.5994 76.4143 30.2776 77.1218 31.0313 77.7356C31.3657 78.0087 31.8394 78.1712 32.2744 78.2462C33.1451 78.395 33.6176 78.0206 33.6413 77.1575C33.6794 75.7643 33.6613 74.3693 33.6482 72.9756C33.6419 72.3368 33.3676 71.915 32.6551 71.88C32.5207 71.8737 32.3926 71.7218 32.2619 71.6375C32.4113 71.55 32.5607 71.3875 32.7088 71.3881C34.2288 71.4006 35.7557 71.3537 37.2657 71.4887C39.8426 71.7175 41.2782 73.8618 40.5244 76.2312C40.0651 77.6762 38.9651 78.4931 37.5501 78.5893C35.0763 78.7581 32.5888 78.7237 30.1069 78.7412C29.9094 78.7425 29.6657 78.5281 29.5169 78.3518C28.9457 77.6737 28.4069 76.9687 27.8494 76.2793C27.6807 76.0706 27.4926 75.8787 27.3132 75.6787L27.0357 75.7706ZM35.2351 72.1025C35.2351 73.8431 35.2138 75.53 35.2576 77.215C35.2644 77.4737 35.5138 77.8643 35.7451 77.9568C36.6557 78.32 38.1276 77.7268 38.5388 76.8056C39.0894 75.5725 39.1563 74.2743 38.4119 73.1043C37.6776 71.95 36.4544 72.065 35.2351 72.1025ZM27.0969 74.9531C27.8857 74.9731 28.7551 75.1487 29.0919 74.2825C29.2807 73.7968 29.2382 73.0437 28.9776 72.6012C28.5819 71.9287 27.7863 72.0462 27.0963 72.1312L27.0969 74.9531Z" fill="#337BA2"/>
<path fill-rule="evenodd" clip-rule="evenodd" d="M60.4813 74.5937C61.0026 74.4812 61.5195 74.4974 61.8551 74.2581C62.137 74.0581 62.207 73.5606 62.4226 73.0793C62.547 73.3024 62.6638 73.4162 62.6664 73.5318C62.682 74.3943 62.6851 75.2574 62.6664 76.1199C62.6632 76.2549 62.5251 76.3868 62.4495 76.5206C62.3645 76.4493 62.2376 76.3956 62.2001 76.3043C61.742 75.1974 61.7445 75.1968 60.4232 75.3149C60.6164 76.1787 59.9464 77.2831 60.9795 77.8512C61.5064 78.1406 62.3563 78.0831 62.9726 77.8937C63.4982 77.7337 63.8976 77.1618 64.3551 76.7699V78.7049C64.102 78.7274 63.9101 78.7587 63.717 78.7587C61.1288 78.7624 58.5407 78.7512 55.9532 78.7706C55.507 78.7743 55.2051 78.6618 54.9326 78.2874C54.397 77.5487 53.8082 76.8487 53.2295 76.1424C53.0845 75.9656 52.8957 75.8249 52.5914 75.5412C52.5914 76.2624 52.5651 76.7793 52.5988 77.2924C52.6338 77.8287 52.892 78.1843 53.4851 78.2512C53.6595 78.2712 53.8157 78.4543 53.9801 78.5637C53.8107 78.6293 53.6426 78.7499 53.4726 78.7531C52.3307 78.7693 51.1895 78.7687 50.0476 78.7537C49.8726 78.7512 49.6988 78.6456 49.5063 78.5818L49.6038 78.3924C51.0063 77.8262 51.0101 77.8262 51.0088 76.1999C51.0076 75.1856 51.0001 74.1712 50.9845 73.1562C50.9738 72.4556 50.7838 71.8999 49.9288 71.8699C49.8057 71.8656 49.6888 71.6906 49.5682 71.5943C49.7095 71.5237 49.8513 71.3912 49.992 71.3924C51.4363 71.4062 52.8888 71.3587 54.3232 71.4924C55.8932 71.6387 56.8639 72.9481 56.2807 74.1531C55.962 74.8112 55.2257 75.2674 54.5776 75.9143C55.1926 76.4768 55.9007 77.2856 56.7595 77.8737C57.9726 78.7049 58.802 78.2306 58.8326 76.7812C58.8582 75.5643 58.8282 74.3462 58.8232 73.1281C58.8207 72.4062 58.5976 71.8818 57.7501 71.8699C57.6345 71.8681 57.5207 71.7449 57.3839 71.6637C57.8245 71.3387 62.0707 71.2206 63.9139 71.4562L64.0326 73.4649L63.8245 73.5499C63.3957 73.1018 63.4489 72.1756 62.562 72.1724C61.8845 72.1693 61.207 72.0981 60.4795 72.0543C60.4813 72.9018 60.4813 73.6731 60.4813 74.5937ZM52.577 74.9474C54.2082 75.0131 54.8557 74.5706 54.817 73.4699C54.7788 72.4087 54.0701 71.9806 52.577 72.1443V74.9474Z" fill="#515151"/>
<path fill-rule="evenodd" clip-rule="evenodd" d="M7.2219 75.4263C7.8444 73.5844 8.45877 71.7407 9.09877 69.905C9.18689 69.6525 9.40252 69.4444 9.5594 69.215C9.7144 69.4513 9.92627 69.6682 10.015 69.9275C10.5969 71.6269 11.1506 73.3344 11.7163 75.0394C11.7613 75.1763 11.8194 75.3082 11.9506 75.645C12.5306 73.8869 13.0675 72.3275 13.5531 70.7519C13.7219 70.2063 13.5025 69.8119 12.8675 69.7407C12.6581 69.7163 12.455 69.6344 12.2106 69.5694C12.6331 69.1013 15.9338 69.0669 16.4775 69.5019C16.33 69.5719 16.2125 69.6713 16.0913 69.6763C15.06 69.7163 14.5825 70.3619 14.2888 71.2519C13.5025 73.6332 12.7013 76.0088 11.9031 78.3863C11.82 78.6332 11.7156 78.8725 11.6206 79.115L11.3575 79.1338L9.12065 72.3707L6.85877 79.1132L6.63752 79.1269C6.52189 78.8763 6.38002 78.6332 6.29565 78.3726C5.56627 76.1344 4.84627 73.8932 4.12439 71.6532C3.81502 70.6913 3.50564 69.735 2.24189 69.6738C2.15939 69.67 2.08377 69.5307 2.00439 69.455C2.10314 69.3738 2.20189 69.2219 2.30189 69.2207C3.72189 69.2057 5.14315 69.2057 6.56315 69.2213C6.6619 69.2219 6.75877 69.3757 6.85689 69.4582C6.75127 69.5369 6.65752 69.6513 6.5394 69.6875C5.4019 70.0313 5.32002 70.1632 5.67814 71.2663C6.13002 72.6619 6.59564 74.0519 7.05564 75.445L7.2219 75.4263Z" fill="#3179A1"/>
<path fill-rule="evenodd" clip-rule="evenodd" d="M40.9275 69.5313C41.1019 69.3806 41.1994 69.2225 41.2944 69.2244C43.1425 69.2519 45.0056 69.1663 46.8344 69.3788C48.5644 69.5794 49.5225 71.2031 49.0006 72.7281C48.5331 74.0963 47.38 74.5244 46.0756 74.6431C45.525 74.6938 44.9656 74.6513 44.3106 74.6513C44.3687 75.5594 44.3981 76.3888 44.4825 77.2125C44.5531 77.9088 45.0219 78.1875 45.6844 78.2438C45.8337 78.2569 45.97 78.4238 46.1119 78.52C45.9556 78.5988 45.8006 78.745 45.6431 78.7469C44.2737 78.765 42.9031 78.7644 41.5337 78.7481C41.3694 78.7463 41.2069 78.6113 41.0437 78.5381C41.18 78.435 41.3137 78.2488 41.4537 78.2431C42.3681 78.2081 42.7112 77.6406 42.7225 76.8463C42.75 74.9206 42.7475 72.995 42.7237 71.0694C42.7137 70.2506 42.3181 69.7269 41.4287 69.6906C41.2962 69.6856 41.165 69.6094 40.9275 69.5313ZM44.3794 73.7225C46.0556 73.8963 46.6937 73.7363 47.0975 72.9931C47.5025 72.2481 47.5037 71.4688 47.025 70.7644C46.3631 69.79 45.3506 70.0781 44.3794 70.0431V73.7225Z" fill="#4D4D4D"/>
<path fill-rule="evenodd" clip-rule="evenodd" d="M19.4226 79.0394C17.9251 78.9744 16.7051 78.5044 15.8014 77.385C14.5182 75.7962 14.7132 73.6387 16.2457 72.265C17.8989 70.7837 20.632 70.72 22.3289 72.1581C23.4776 73.1325 24.022 74.3662 23.6482 75.8787C23.2264 77.585 22.0226 78.4987 20.387 78.9137C20.0457 78.9994 19.6857 79.0069 19.4226 79.0394ZM22.2626 75.1337L22.1226 75.0419C22.0295 74.5987 21.9751 74.1425 21.8364 73.7137C21.4351 72.4819 20.5951 71.8731 19.3595 71.8706C18.1282 71.8681 17.3001 72.48 16.8976 73.725C16.5401 74.8319 16.5864 75.9287 17.137 76.9625C17.9589 78.505 20.1551 78.7944 21.2301 77.4225C21.7314 76.7831 21.9276 75.9037 22.2626 75.1337Z" fill="#3279A1"/>
<path fill-rule="evenodd" clip-rule="evenodd" d="M76.7176 71.4481L77.2757 70.9594V73.6944L77.1138 73.8162C76.9832 73.6319 76.8026 73.465 76.7294 73.2593C76.3601 72.225 75.5638 71.6637 74.6551 71.9362C74.3432 72.0293 73.9682 72.3418 73.8851 72.63C73.8169 72.865 74.0632 73.33 74.3044 73.4887C74.9344 73.9037 75.6363 74.2112 76.3132 74.5531C77.7857 75.2981 78.3119 76.3312 77.8138 77.5131C77.3082 78.7137 75.7744 79.335 74.4001 78.8712C74.0213 78.7425 73.6707 78.5312 73.3201 78.3644L72.7844 79.0681L72.5476 78.9956C72.5476 78.0725 72.5419 77.1493 72.5569 76.2262C72.5582 76.1368 72.6913 76.05 72.7632 75.9618C72.8757 76.0981 73.0432 76.2181 73.0926 76.3743C73.4194 77.4093 74.0488 78.0968 75.1707 78.2118C75.8101 78.2775 76.4351 78.1987 76.6569 77.47C76.8594 76.8031 76.3944 76.4269 75.8951 76.1425C75.3457 75.83 74.7651 75.5743 74.2026 75.2862C73.9557 75.1593 73.7038 75.0337 73.4819 74.8706C72.6963 74.2912 72.3863 73.4562 72.6188 72.6094C72.8263 71.8525 73.5707 71.2112 74.4919 71.1843C75.1738 71.165 75.8638 71.3406 76.7176 71.4481ZM66.5494 78.34C66.4457 78.5462 66.3882 78.7193 66.2813 78.8531C66.2169 78.9331 66.0588 79.0093 65.9751 78.9831C65.8957 78.9581 65.8113 78.7993 65.8094 78.6981C65.7963 77.8862 65.7963 77.0737 65.8101 76.2631C65.8113 76.1637 65.9213 76.0669 65.9813 75.9687C66.0963 76.0419 66.2601 76.0893 66.3169 76.195C66.4226 76.3912 66.4469 76.63 66.5394 76.835C66.9569 77.7612 67.8026 78.3406 68.7726 78.2C69.1782 78.1418 69.6788 77.8337 69.8801 77.4887C70.1513 77.0256 69.8263 76.5487 69.3713 76.2856C68.7594 75.9318 68.1257 75.6137 67.4907 75.3037C66.0551 74.6031 65.4494 73.4462 65.9638 72.3543C66.4751 71.2687 68.0451 70.8168 69.3569 71.3818C69.5169 71.4506 69.6688 71.5381 69.7944 71.6031L70.4682 71.0493C70.5388 71.2475 70.5838 71.3156 70.5844 71.3837C70.5894 72.1437 70.5876 72.9031 70.5876 73.6625L70.3894 73.795C70.2576 73.6262 70.0744 73.4769 70.0026 73.2862C69.6444 72.3287 69.0776 71.7981 68.2463 71.8993C67.8563 71.9462 67.3594 72.2143 67.1676 72.5356C66.8863 73.0075 67.2926 73.3862 67.7207 73.6162C68.3226 73.9406 68.9388 74.2362 69.5494 74.5431C71.0607 75.3012 71.5926 76.3543 71.0707 77.5581C70.5626 78.7306 68.9794 79.3375 67.6226 78.8562C67.2701 78.7318 66.9432 78.5312 66.5494 78.34Z" fill="#505050"/>
<path fill-rule="evenodd" clip-rule="evenodd" d="M40.7882 0.871902C24.0501 0.573152 10.0644 14.155 10.0601 30.625C10.0551 47.5688 23.3963 61.0869 40.1082 61.0619C56.6644 61.0375 70.0657 47.57 70.0657 30.9575C70.0651 14.615 56.7251 1.15628 40.7882 0.871902ZM40.0707 59.5513C24.2419 59.555 11.5119 46.7207 11.5126 30.7594C11.5132 15.2094 24.4407 2.3344 40.0588 2.32878C55.9538 2.32378 68.6182 15.2375 68.6132 31.4457C68.6082 46.7475 55.6088 59.5482 40.0707 59.5513ZM55.3176 22.4594C54.6963 21.4357 53.9326 20.4425 53.5813 19.3263C53.1813 18.0563 52.8494 16.6107 53.0613 15.3375C53.4213 13.1788 55.0769 12.1069 57.3188 11.9019C45.0538 0.518776 25.7801 4.59315 18.6782 16.9613C21.4119 16.8344 24.0219 16.6688 26.6338 16.6338C27.1282 16.6269 27.9463 17.0444 28.0626 17.4319C28.3226 18.2975 27.5951 18.5994 26.8213 18.6588C26.0082 18.7225 25.1938 18.7832 24.2494 18.855C27.3682 28.1457 30.4401 37.2982 33.5838 46.6638C33.8082 46.2969 33.9007 46.1938 33.9413 46.0732C35.6676 40.9138 37.4038 35.7575 39.0863 30.5832C39.2401 30.1113 39.1638 29.4863 38.9951 29.0013C38.1051 26.4319 37.0388 23.9182 36.2582 21.3175C35.7238 19.5369 35.0157 18.385 32.9113 18.5913C32.5526 18.6263 32.1157 17.855 31.7138 17.4563C32.1994 17.1669 32.6813 16.6338 33.1713 16.6263C37.4569 16.5613 41.7438 16.5613 46.0288 16.63C46.5201 16.6382 47.0019 17.1857 47.4882 17.4825C47.0626 17.8713 46.6963 18.4538 46.1988 18.6038C45.4013 18.8444 44.5169 18.7988 43.5626 18.8838C46.6844 28.1694 49.7419 37.2663 52.9082 46.6863C54.3244 41.9838 55.6419 37.665 56.9219 33.3363C58.0657 29.4725 57.3844 25.8632 55.3176 22.4594ZM32.9494 55.0932C32.8919 55.26 32.8888 55.445 32.8444 55.7225C38.1307 57.1875 43.3132 57.0819 48.6194 55.2944L40.5144 33.0944C37.9201 40.6344 35.4326 47.8632 32.9494 55.0932ZM28.8651 54.0894C24.7688 42.8525 20.7263 31.7619 16.6538 20.5919C11.1451 31.3525 15.3357 47.7707 28.8651 54.0894ZM62.8976 19.4625C62.7288 21.3338 62.8463 23.4169 62.3094 25.3138C61.0451 29.7838 59.4994 34.1769 58.0113 38.5819C56.3938 43.3694 54.7113 48.1357 53.0569 52.9113C60.8301 48.3038 65.1013 41.5032 65.7813 32.5644C66.1688 27.4769 64.4138 20.4319 62.8976 19.4625Z" fill="#494949"/>
</svg>
