<svg width="45" height="45" viewBox="0 0 45 45" fill="none" xmlns="http://www.w3.org/2000/svg">
<path d="M32.4646 2.25844H12.5338C11.413 2.25844 10.5032 3.16828 10.5032 4.28906V40.7123C10.5032 41.8345 11.413 42.743 12.5338 42.743H32.4646C33.5854 42.743 34.4952 41.8345 34.4952 40.7123V4.28906C34.4952 3.16828 33.5854 2.25844 32.4646 2.25844ZM32.9961 40.7123C32.9961 41.0048 32.7585 41.2425 32.466 41.2425H12.5352C12.2427 41.2425 12.005 41.0048 12.005 40.7123V33.7514H32.9976V40.7123H32.9961ZM32.9961 32.2509H12.0036V8.28563H32.9961V32.2509ZM32.9961 6.78656H12.0036V4.28906C12.0036 3.99656 12.2413 3.7575 12.5338 3.7575H32.4646C32.7571 3.7575 32.9947 3.99656 32.9947 4.28906V6.78656H32.9961Z" fill="#FEA501"/>
<path d="M20.2515 36.7439H24.7501V38.243H20.2515V36.7439Z" fill="#FEA501"/>
</svg>
