<svg width="43" height="43" viewBox="0 0 43 43" fill="none" xmlns="http://www.w3.org/2000/svg">
<path d="M38.3681 0.508906C36.3009 0.508906 34.619 2.18937 34.619 4.25656C34.619 5.55875 35.2884 6.70625 36.2995 7.37844L29.212 26.0591C29.0151 26.0267 28.8182 25.9986 28.6143 25.9986C27.7157 25.9986 26.9015 26.3291 26.256 26.8578L19.1643 20.9994C19.4442 20.4748 19.6171 19.8856 19.6171 19.25C19.6171 17.1828 17.9352 15.5009 15.8681 15.5009C13.8009 15.5009 12.119 17.1828 12.119 19.25C12.119 20.3666 12.6196 21.3608 13.3973 22.047L5.84009 35.2095C5.45899 35.0788 5.05821 34.9916 4.63212 34.9916C2.56493 34.9916 0.883057 36.672 0.883057 38.7392C0.883057 40.8078 2.56493 42.4897 4.63212 42.4897C6.69931 42.4897 8.37978 40.8078 8.37978 38.7392C8.37978 37.6367 7.89321 36.6552 7.13243 35.9689L14.6981 22.7923C15.0679 22.9147 15.456 22.9977 15.8667 22.9977C16.7568 22.9977 17.5626 22.6728 18.2066 22.1539L25.3068 28.018C25.034 28.5383 24.8652 29.1191 24.8652 29.7448C24.8652 31.812 26.5471 33.4939 28.6143 33.4939C30.6815 33.4939 32.3634 31.812 32.3634 29.7448C32.3634 28.4145 31.6616 27.2516 30.6154 26.585L37.6917 7.93391C37.9124 7.97469 38.1374 8.00141 38.3695 8.00141C40.4366 8.00141 42.1185 6.31953 42.1185 4.25094C42.1185 2.18234 40.4366 0.503281 38.3695 0.503281L38.3681 0.508906ZM4.63212 40.992C3.39181 40.992 2.38212 39.9823 2.38212 38.7406C2.38212 37.5017 3.39181 36.4934 4.63212 36.4934C5.87243 36.4934 6.88071 37.5017 6.88071 38.7406C6.88071 39.9823 5.87243 40.992 4.63212 40.992ZM15.8681 21.5C14.6277 21.5 13.6195 20.4917 13.6195 19.2514C13.6195 18.0111 14.6277 17.0028 15.8681 17.0028C17.1084 17.0028 18.1166 18.0111 18.1166 19.2514C18.1166 20.4917 17.1084 21.5 15.8681 21.5ZM28.6143 31.9963C27.374 31.9963 26.3657 30.988 26.3657 29.7477C26.3657 28.5073 27.374 27.4991 28.6143 27.4991C29.8546 27.4991 30.8629 28.5073 30.8629 29.7477C30.8629 30.988 29.8546 31.9963 28.6143 31.9963ZM38.3681 6.50656C37.1277 6.50656 36.1195 5.49687 36.1195 4.25656C36.1195 3.01766 37.1277 2.00937 38.3681 2.00937C39.6084 2.00937 40.6166 3.01766 40.6166 4.25656C40.6166 5.49828 39.6084 6.50656 38.3681 6.50656Z" fill="#FEA501"/>
</svg>
