<svg width="43" height="39" viewBox="0 0 43 39" fill="none" xmlns="http://www.w3.org/2000/svg">
<path d="M42.0622 10.5028H10.5523L8.00843 0.00656128H0.939209V1.50562H6.82858L14.1383 31.6598C12.5801 32.1141 11.4341 33.5358 11.4341 35.2416C11.4341 37.3116 13.1117 38.9906 15.1831 38.9906C17.2545 38.9906 18.9322 37.3116 18.9322 35.2416C18.9322 34.3936 18.6397 33.6202 18.1658 32.993H28.6944C28.2205 33.6202 27.928 34.395 27.928 35.2416C27.928 37.3116 29.6056 38.9906 31.6756 38.9906C33.7456 38.9906 35.4247 37.3116 35.4247 35.2416C35.4247 33.1702 33.747 31.4939 31.6756 31.4925H15.6401L14.9131 28.493H35.9619L42.0608 10.5L42.0622 10.5028ZM17.4317 35.2444C17.4317 36.4847 16.4234 37.493 15.1831 37.493C13.9428 37.493 12.9345 36.4847 12.9345 35.2444C12.9345 34.0041 13.9428 32.9958 15.1831 32.9958C16.4234 32.9958 17.4317 34.0055 17.4317 35.2444ZM33.9256 35.2444C33.9256 36.4847 32.9159 37.493 31.6756 37.493C30.4353 37.493 29.427 36.4847 29.427 35.2444C29.427 34.0041 30.4353 32.9958 31.6756 32.9958C32.9159 32.9958 33.9256 34.0055 33.9256 35.2444ZM14.5503 26.9967L10.9151 12.0033H39.9711L34.8875 26.9967H14.5503Z" fill="#FEA501"/>
</svg>
