<svg width="77" height="83" viewBox="0 0 77 83" fill="none" xmlns="http://www.w3.org/2000/svg">
<g clip-path="url(#clip0)">
<path fill-rule="evenodd" clip-rule="evenodd" d="M40.6128 3.27954C19.384 3.27954 2.16968 21.6404 2.16968 44.2922C2.16968 62.4134 13.1848 77.786 28.4594 83.2097C30.3801 83.59 31.0854 82.32 31.0854 81.2368C31.0854 80.2588 31.0498 77.0281 31.0332 73.6011C20.3383 76.082 18.0815 68.7621 18.0815 68.7621C16.3328 64.0216 13.8131 62.7611 13.8131 62.7611C10.3245 60.2156 14.076 60.2686 14.076 60.2686C17.9358 60.5573 19.9691 64.495 19.9691 64.495C23.3978 70.7636 28.9623 68.9516 31.1561 67.9043C31.5011 65.2536 32.4974 63.4437 33.5968 62.4195C25.0581 61.3838 16.0813 57.8665 16.0813 42.1515C16.0813 37.6739 17.5837 34.0153 20.0429 31.1425C19.6431 30.1102 18.3273 25.9388 20.4147 20.2896C20.4147 20.2896 23.6423 19.1873 30.9886 24.4936C34.0558 23.5842 37.3451 23.1271 40.6128 23.1115C43.8786 23.1271 47.1698 23.5828 50.2427 24.4922C57.5801 19.186 60.8039 20.2882 60.8039 20.2882C62.8964 25.9368 61.5806 30.1088 61.1814 31.1411C63.6463 34.0139 65.1379 37.6725 65.1379 42.1502C65.1379 57.9025 56.1446 61.3702 47.5842 62.3862C48.9637 63.659 50.1924 66.1555 50.1924 69.9812C50.1924 75.4687 50.1478 79.8853 50.1478 81.2361C50.1478 82.3275 50.8404 83.6064 52.7884 83.2036C68.0542 77.7745 79.0565 62.4066 79.0565 44.2922C79.0559 21.6418 61.8435 3.28022 40.6128 3.28022V3.27954Z" fill="#181616"/>
<path d="M16.73 62.1642C16.6453 62.368 16.3448 62.4291 16.0711 62.2899C15.791 62.1568 15.635 61.879 15.7254 61.6746C15.8082 61.464 16.1093 61.4063 16.3875 61.5469C16.6676 61.6807 16.8267 61.9612 16.7293 62.1649L16.73 62.1642ZM18.2871 64.0176C18.1044 64.199 17.746 64.1148 17.5028 63.8275C17.2507 63.5422 17.2036 63.1599 17.3901 62.9758C17.5798 62.7952 17.9274 62.8807 18.1795 63.166C18.4303 63.4553 18.48 63.8343 18.2877 64.0183L18.2871 64.0176ZM19.8035 66.3791C19.5679 66.5543 19.1821 66.3906 18.9441 66.0259C18.7085 65.6605 18.7085 65.2225 18.9504 65.0479C19.1879 64.8727 19.5679 65.0309 19.8098 65.3922C20.0441 65.7624 20.0441 66.2004 19.8035 66.3784V66.3791ZM21.8794 68.6617C21.6693 68.9096 21.2199 68.843 20.8914 68.5055C20.5559 68.1747 20.4623 67.7041 20.6731 67.4569C20.887 67.2083 21.3383 67.2776 21.6687 67.6131C22.0042 67.9431 22.1054 68.4145 21.8807 68.661L21.8794 68.6617ZM24.7441 69.9867C24.6506 70.308 24.2189 70.454 23.7829 70.3168C23.3481 70.1762 23.0635 69.8006 23.1526 69.476C23.2418 69.152 23.6765 69.0006 24.1152 69.1466C24.55 69.2865 24.8345 69.66 24.7441 69.9867ZM27.8909 70.2319C27.9017 70.5701 27.5324 70.8499 27.076 70.8567C26.6157 70.8683 26.2433 70.5939 26.2389 70.2611C26.2389 69.9195 26.6005 69.6431 27.0601 69.6336C27.5165 69.6247 27.8915 69.8964 27.8915 70.2312L27.8909 70.2319ZM30.8179 69.7008C30.8727 70.0302 30.555 70.3691 30.1011 70.4594C29.6555 70.5477 29.2417 70.3426 29.1844 70.0159C29.1297 69.6777 29.4531 69.3388 29.8987 69.2512C30.3532 69.1677 30.7606 69.3667 30.8179 69.7015V69.7008Z" fill="#181616"/>
</g>
<defs>
<clipPath id="clip0">
<rect width="76.8869" height="82.2599" fill="white"/>
</clipPath>
</defs>
</svg>
