<svg width="80" height="80" viewBox="0 0 80 80" fill="none" xmlns="http://www.w3.org/2000/svg">
<g clip-path="url(#clip0)">
<path d="M79.9201 7.67123C79.9201 3.4166 75.6843 0 70.4096 0H9.51049C4.23576 0 0 3.4166 0 7.67123V72.3288C0 76.5834 4.23576 80 9.51049 80H70.4895C75.7642 80 80 76.5834 80 72.3288V7.67123H79.9201ZM76.7233 7.7357V71.7486C76.7233 74.7784 73.9261 77.357 70.1698 77.357H9.99001C6.23377 77.357 3.1968 74.7784 3.1968 71.7486V7.7357C3.1968 4.70588 6.31369 2.57857 9.99001 2.57857H70.0899C73.8462 2.57857 76.8032 4.89927 76.8032 7.92909L76.7233 7.7357ZM18.3816 68.7832L29.6504 59.6938L18.3816 50.6044V68.7832ZM29.5704 29.5246V10.5721L18.4615 10.6366C18.4615 10.6366 18.5415 40.2256 18.6214 40.0967C52.8272 29.3312 50.3497 37.0024 50.3497 37.0024V68.8477L50.2697 68.9766H60.7393V37.0669C60.7393 19.5971 29.5704 29.5246 29.5704 29.5246ZM44.7552 21.9178H56.5834C62.977 15.4714 65.1349 10.9589 65.1349 10.9589H52.9071C52.9071 10.9589 48.991 18.05 44.7552 21.9178Z" fill="#6762A6"/>
</g>
<defs>
<clipPath id="clip0">
<rect width="80" height="80" fill="white"/>
</clipPath>
</defs>
</svg>
