<svg width="80" height="80" viewBox="0 0 80 80" fill="none" xmlns="http://www.w3.org/2000/svg">
<path d="M11.8981 71.1725L5.64502 1.03809H74.355L68.095 71.1618L39.9581 78.9618L11.8981 71.1725Z" fill="#E44D26"/>
<path d="M40 73L62.7363 66.6962L68.0856 6.77246H40V73Z" fill="#F16529"/>
<path d="M40 32.7844H28.6175L27.8313 23.9756H40V15.3744H18.4307L18.6369 17.6819L20.7507 41.3863H40V32.7844ZM40 55.1238L39.9619 55.1344L30.3825 52.5469L29.7707 45.6875H21.135L22.34 59.1931L39.9607 64.0844L40 64.0738V55.1238Z" fill="#EBEBEB"/>
<path d="M39.97 32.7844V41.3863H50.5618L49.5637 52.5419L39.97 55.1313V64.0806L57.6043 59.1931L57.7337 57.74L59.755 35.0944L59.9643 32.7844H57.6468H39.97ZM39.97 15.3744V23.9756H60.7475L60.92 22.0431L61.3125 17.6819L61.5181 15.3744H39.97Z" fill="white"/>
</svg>
