<svg width="78" height="81" viewBox="0 0 78 81" fill="none" xmlns="http://www.w3.org/2000/svg">
<path d="M29.1781 61.4098C29.1781 61.4098 26.3147 63.1435 31.2186 63.7285C37.1606 64.4348 40.197 64.3335 46.7432 63.046C46.7432 63.046 48.4677 64.1679 50.8717 65.1404C36.1917 71.6841 17.6493 64.761 29.1781 61.4098ZM27.3833 52.8691C27.3833 52.8691 24.1709 55.3435 29.079 55.8723C35.4264 56.5541 40.4379 56.6098 49.1141 54.8723C49.1141 54.8723 50.3112 56.1379 52.1968 56.8291C34.4515 62.2291 14.6868 57.2541 27.3833 52.8691Z" fill="#0074BD"/>
<path d="M42.5043 38.3791C46.1233 42.7135 41.5552 46.6103 41.5552 46.6103C41.5552 46.6103 50.739 41.6785 46.5222 35.4997C42.5823 29.7403 39.5621 26.8797 55.9138 17.0122C55.9138 17.0128 30.2462 23.681 42.5043 38.3791Z" fill="#EA2D2E"/>
<path d="M61.9187 67.7278C61.9187 67.7278 64.0385 69.5466 59.5833 70.9522C51.1125 73.6222 24.3198 74.4272 16.8786 71.0591C14.205 69.8478 19.2207 68.1685 20.7986 67.8141C22.4439 67.4435 23.3834 67.511 23.3834 67.511C20.4082 65.3316 4.15384 71.7922 15.1282 73.6453C45.0547 78.6928 69.6801 71.3722 61.9187 67.7278ZM30.5567 44.0185C30.5567 44.0185 16.9297 47.3866 25.7314 48.611C29.4484 49.1285 36.8548 49.0097 43.7584 48.4072C49.3988 47.9141 55.059 46.861 55.059 46.861C55.059 46.861 53.0719 47.7478 51.6327 48.7691C37.7919 52.5572 11.0604 50.7928 18.7569 46.9203C25.2635 43.646 30.5567 44.0185 30.5567 44.0185ZM55.0025 58.2353C69.071 50.631 62.5656 43.3228 58.0251 44.3072C56.9151 44.5478 56.4171 44.7572 56.4171 44.7572C56.4171 44.7572 56.8304 44.0828 57.6185 43.7928C66.6004 40.5085 73.507 53.4822 54.7214 58.621C54.7214 58.6197 54.937 58.4166 55.0025 58.2353Z" fill="#0074BD"/>
<path d="M46.5223 1.07666C46.5223 1.07666 54.3119 9.18666 39.1321 21.6535C26.9588 31.6573 36.3564 37.3598 39.1279 43.8779C32.0213 37.2073 26.8086 31.3342 30.3052 25.8685C35.4398 17.8473 49.6644 13.9567 46.5223 1.07666Z" fill="#EA2D2E"/>
<path d="M31.9395 78.8478C45.4404 79.7459 66.1782 78.3478 66.669 71.7003C66.669 71.7003 65.7253 74.2203 55.5102 76.2197C43.9855 78.4772 29.7687 78.2141 21.3394 76.7659C21.3394 76.7666 23.0663 78.2541 31.9395 78.8478Z" fill="#0074BD"/>
</svg>
