<svg width="80" height="80" viewBox="0 0 80 80" fill="none" xmlns="http://www.w3.org/2000/svg">
<path d="M0.880127 0.880005H79.1201V79.1206H0.880127V0.880005Z" fill="#F0DB4F"/>
<path d="M72.717 60.46C72.1438 56.8907 69.8163 53.8925 62.922 51.0969C60.527 49.9963 57.857 49.2082 57.0613 47.3932C56.7788 46.3369 56.7413 45.7419 56.9201 45.1025C57.4332 43.0275 59.9101 42.3807 61.8732 42.9757C63.1376 43.3994 64.3345 44.3738 65.0563 45.9282C68.4326 43.7419 68.4257 43.7563 70.7832 42.2538C69.9201 40.9157 69.4595 40.2982 68.8945 39.7257C66.8638 37.4575 64.097 36.2894 59.672 36.3788L57.367 36.6769C55.1582 37.235 53.0532 38.3944 51.8188 39.9488C48.1151 44.1513 49.1713 51.5063 53.6782 54.5332C58.1182 57.8657 64.6407 58.6238 65.4738 61.74C66.2845 65.555 62.6701 66.79 59.0776 66.3513C56.4301 65.8007 54.9576 64.455 53.3657 62.0082C50.4357 63.7038 50.4357 63.7038 47.4232 65.4363C48.1376 66.9982 48.8882 67.705 50.0857 69.0582C55.7532 74.8069 69.9357 74.5244 72.4795 65.8232C72.5826 65.5244 73.2676 63.5319 72.717 60.46ZM43.4138 36.8394H36.0957L36.0657 55.7594C36.0657 59.7832 36.2738 63.4719 35.6195 64.6025C34.5488 66.8263 31.7745 66.5507 30.5101 66.1194C29.2232 65.4869 28.5688 64.5875 27.8107 63.3163C27.6026 62.9513 27.4463 62.6688 27.3938 62.6469L21.4438 66.2907C22.4332 68.3213 23.8907 70.0838 25.7576 71.2288C28.5463 72.9025 32.2945 73.4157 36.2145 72.5157C38.7657 71.7725 40.967 70.2332 42.1195 67.89C43.7857 64.8182 43.4282 61.1 43.4132 56.9875C43.4507 50.2782 43.4138 43.57 43.4138 36.8394Z" fill="#323330"/>
</svg>
