<svg width="43" height="43" viewBox="0 0 43 43" fill="none" xmlns="http://www.w3.org/2000/svg">
<path d="M42.2717 7.15906L36.2937 1.18109L34.8312 2.64499L32.7837 0.598899C32.4912 0.306399 32.0159 0.306399 31.7234 0.598899L19.5762 12.7475C19.2837 13.04 19.2837 13.5153 19.5762 13.8078C19.7225 13.9541 19.9151 14.0272 20.1064 14.0272C20.2976 14.0272 20.4903 13.9541 20.6366 13.8078L32.2536 2.18937L33.7709 3.70531L8.00983 29.465L9.74655 31.2017C9.0153 30.8403 8.21936 30.6561 7.42343 30.6561C6.07765 30.6561 4.73187 31.1694 3.7053 32.1959C3.59983 32.3 3.49858 32.4125 3.40155 32.5306C3.35374 32.5869 3.30733 32.6459 3.26374 32.7036C3.2103 32.7697 3.16108 32.8386 3.11327 32.9089C3.07671 32.9595 3.04015 33.0101 3.0064 33.0608C0.826709 36.3387 0.728271 42.6078 0.728271 42.6078C0.728271 42.6078 0.956084 42.619 1.35265 42.619C3.15405 42.619 8.39796 42.373 11.1416 39.6294C12.7756 37.9939 13.1047 35.5512 12.1344 33.5867L13.9892 35.4416L42.2731 7.15765L42.2717 7.15906ZM10.0798 38.5705C8.4064 40.2439 5.47015 40.8205 3.37624 41.0187L6.78921 37.6058L5.7289 36.5455L2.45937 39.815C2.72515 37.8153 3.2553 35.3909 4.25937 33.8848L4.30155 33.8244L4.33812 33.7723C4.37046 33.7259 4.40421 33.6767 4.46187 33.6036C4.48718 33.5712 4.51108 33.5375 4.55608 33.4855C4.62218 33.4067 4.68968 33.3308 4.76421 33.2562C5.47437 32.5461 6.41796 32.1551 7.42202 32.1551C8.42608 32.1551 9.36968 32.5461 10.0798 33.2562C11.5437 34.7216 11.5437 37.1051 10.0798 38.5705ZM40.1525 7.15906L31.2594 16.0522L27.4006 12.1948L36.2937 3.30171L40.1525 7.15906ZM26.3403 13.2537L30.1991 17.1111L13.9878 33.3223L10.1291 29.465L26.3403 13.2537Z" fill="#FEA501"/>
</svg>
