<svg width="45" height="45" viewBox="0 0 45 45" fill="none" xmlns="http://www.w3.org/2000/svg">
<g clip-path="url(#clip0)">
<path d="M-0.0119629 39.7069L24.0734 20.1375L25.3784 21.1978L1.29304 40.7672L-0.0119629 39.7069Z" fill="#FEA501"/>
<path d="M17.261 14.6995H24.6462V16.2H17.261V14.6995Z" fill="#FEA501"/>
<path d="M37.5698 14.6995H44.955V16.2H37.5698V14.6995Z" fill="#FEA501"/>
<path d="M30.1846 20.7H32.0313V26.7005H30.1846V20.7Z" fill="#FEA501"/>
<path d="M30.1846 4.20047H32.0313V10.2009H30.1846V4.20047Z" fill="#FEA501"/>
<path d="M41.5228 8.03953L36.3011 12.2822L34.9961 11.2219L40.2178 6.97922L41.5228 8.03953Z" fill="#FEA501"/>
<path d="M40.2334 23.9653L35.0117 19.7227L36.3167 18.6623L41.5384 22.905L40.2334 23.9653Z" fill="#FEA501"/>
<path d="M25.9373 12.292L20.7156 8.04937L22.0206 6.98906L27.2423 11.2317L25.9373 12.292Z" fill="#FEA501"/>
</g>
<defs>
<clipPath id="clip0">
<rect width="45" height="45" fill="white"/>
</clipPath>
</defs>
</svg>
